<svg data-v-0dd9719b="" version="1.0" xmlns="http://www.w3.org/2000/svg" xmlns:xlink="http://www.w3.org/1999/xlink" width="100%" height="100%" viewBox="0 0 340.000000 250.000000" preserveAspectRatio="xMidYMid meet" color-interpolation-filters="sRGB" style="margin: auto;"> <rect data-v-0dd9719b="" x="0" y="0" width="100%" height="100%" fill="#ffffff" fill-opacity="1" class="background"></rect> <rect data-v-0dd9719b="" x="0" y="0" width="100%" height="100%" fill="url(#watermark)" fill-opacity="1" class="watermarklayer"></rect> <g data-v-0dd9719b="" fill="#7f79f7" class="icon-text-wrapper icon-svg-group iconsvg" transform="translate(91.54996490478516,86.12581634521484)"><g class="iconsvg-imagesvg" transform="translate(0,8.874183654785156)"><g><rect fill="#7f79f7" fill-opacity="0" stroke-width="2" x="0" y="0" width="60" height="60" class="image-rect"></rect> <svg filter="url(#colors4428082400)" x="0" y="0" width="60" height="60" filtersec="colorsf4549425524" class="image-svg-svg primary" style="overflow: visible;"><svg xmlns="http://www.w3.org/2000/svg" viewBox="0 0 77.5 77.5"><path d="M75.5 75.5H2V2h73.5v73.5zm0-73.5H2v73.5h73.5V2zM63.2 75.5L26.5 38.7 14.2 51l24.5 24.5H26.5L2 51m73.5 24.5l-49-49L2 51M26.5 2L14.2 14.2 2 26.5v12.2l24.5-24.5 49 49v12.2M26.5 2l49 49V38.7L38.7 2H51l24.5 24.5M2 14.2L14.2 2m49 0l12.2 12.2M2 63.2l12.2 12.2M26.5 51L51 75.5" fill="none" stroke="#333" stroke-width="4" stroke-miterlimit="10"></path></svg></svg> <defs><filter id="colors4428082400"><feColorMatrix type="matrix" values="0 0 0 0 0.49609375  0 0 0 0 0.47265625  0 0 0 0 0.96484375  0 0 0 1 0" class="icon-fecolormatrix"></feColorMatrix></filter> <filter id="colorsf4549425524"><feColorMatrix type="matrix" values="0 0 0 0 0.99609375  0 0 0 0 0.99609375  0 0 0 0 0.99609375  0 0 0 1 0" class="icon-fecolormatrix"></feColorMatrix></filter> <filter id="colorsb4905021752"><feColorMatrix type="matrix" values="0 0 0 0 0  0 0 0 0 0  0 0 0 0 0  0 0 0 1 0" class="icon-fecolormatrix"></feColorMatrix></filter></defs></g></g> <g transform="translate(67,0)"><g data-gra="path-name" fill-rule="" class="tp-name iconsvg-namesvg"><g transform="scale(1)"><g><path d="M31.53-45.11L31.53-29.32 17.23-29.32 17.23-45.11 4.29-45.11 4.29 0 17.23 0 17.23-18.53 31.53-18.53 31.53 0 44.46 0 44.46-45.11ZM78.59-24.25L93.53-45.11 78.65-45.11 67.73-28.86 65.97-28.86 65.97-45.11 53.04-45.11 53.04 0 65.97 0 65.97-18.72 67.73-18.72 78.78 0 94.19 0Z" transform="translate(-4.289999961853027, 45.11000061035156)"></path></g> <!----> <!----> <!----> <!----> <!----> <!----> <g data-gra="path-name-1" fill="#7f79f7" transform="translate(0,48.11000061035156)"><g transform="scale(0.99491)"><path d="M10.86 0L21.46 0 32.15-29.79 23.14-29.79 16.53-9.1 16.27-9.1 10-29.79 0.47-29.79ZM35.46 0L44 0 44-29.79 35.46-29.79ZM57.69 0L68.3 0 78.98-29.79 69.97-29.79 63.36-9.1 63.1-9.1 56.83-29.79 47.3-29.79ZM82.29 0L90.83 0 90.83-29.79 82.29-29.79Z" transform="translate(-0.4700000286102295, 29.790000915527344)"></path></g></g></g></g> <!----></g></g><defs v-gra="od"></defs></svg>